<?xml version="1.0" encoding="UTF-8"?>
<!DOCTYPE svg PUBLIC "-//W3C//DTD SVG 1.1//EN" "http://www.w3.org/Graphics/SVG/1.1/DTD/svg11.dtd">
<!-- Creator: CorelDRAW X8 -->
<?xml-stylesheet href="41824-ENERGYFIT-0ec30342-ddaa-47ef-a9fe-ecd4b4b641a6.css" type="text/css"?>
<svg xmlns="http://www.w3.org/2000/svg" xml:space="preserve" width="603px" height="519px" version="1.1" style="shape-rendering:geometricPrecision; text-rendering:geometricPrecision; image-rendering:optimizeQuality; fill-rule:evenodd; clip-rule:evenodd"
viewBox="0 0 733 630"
 xmlns:xlink="http://www.w3.org/1999/xlink">
 <g id="Слой_x0020_1">
  <metadata id="CorelCorpID_0Corel-Layer"/>
  <g id="_1815326334592">
   <g>
    <g>
     <path class="fil0" d="M288 294l0 149c26,0 169,2 180,0l-9 -189c-3,0 -24,5 -29,5 -6,0 -8,-1 -6,-3 5,-5 34,-13 35,-13 56,-30 71,-47 64,-109l-51 -1c-1,0 -2,0 -3,1 -3,0 -16,7 -20,9 -14,6 -27,12 -42,16 -14,4 -32,9 -40,19 -5,5 -23,33 -18,35l0 0 0 0c1,0 2,1 3,1l0 0 0 0 1 0 0 1c1,0 2,0 3,1l0 0 1 0 1 0 0 0 1 1 0 0 0 0 1 0 1 1c0,0 1,0 2,1l0 0 1 0 1 0 0 0 1 1 0 0c1,1 2,1 3,1l0 1 0 0c1,0 2,0 3,1l0 0 1 1 0 0 1 0 0 1 2 0 0 0 0 0 1 1 0 0 1 1 0 0c1,0 1,1 1,1l0 0 2 1 0 0 1 0 0 1 1 0 0 0 1 1 0 0 1 1 0 0 1 1 1 0 0 1 1 0 1 1 0 0c0,0 0,1 0,1l1 0c0,0 0,1 1,1l0 0c0,0 0,0 0,1l0 0c1,0 1,1 1,1l0 0c1,0 1,0 1,1l0 0c0,0 1,0 1,1l0 0c0,0 1,1 1,1 2,3 -5,5 -10,0 -6,-6 -23,-16 -41,-22 -19,-6 -33,-8 -40,-7 -35,5 -6,-8 12,-7l0 0 1 0 0 0 0 0 1 0 0 0 0 0 1 0 0 0 0 0 0 0 1 0 0 0 0 0 0 0 1 0 0 0 1 0 0 0 0 0 1 1 0 0 0 0 1 0 0 0 0 0 0 0 1 0 0 0 1 0 0 0 0 0 1 0 0 0 0 0 1 0 0 0 1 0 0 1 1 0 0 0 0 0 1 0 0 0 1 0 0 0 1 0 0 0 1 1 0 0 1 0 0 0 0 0 1 0 1 0 0 0 1 1 0 0 1 0 1 0 1 0 0 1 1 0 1 0 0 0c-2,-10 8,-30 14,-36 7,-8 21,-13 33,-18 19,-8 61,-20 71,-32 1,-5 -1,-16 -2,-23 -2,-10 -6,-7 -13,-11 -23,-11 -46,-36 -30,-59 10,-14 21,6 33,4 6,-7 4,-14 0,-22 -10,-17 -33,-19 -44,-4 -4,5 -4,12 -4,19 1,11 15,72 19,81 7,17 29,8 35,10 0,5 -1,6 -6,7 -18,6 -22,-4 -29,-5 -7,7 -3,14 -18,18 -17,4 -19,-6 -28,-7 -5,5 -3,9 -7,15 -17,21 -38,0 -42,1 -6,3 -5,9 -12,14 -5,3 -14,4 -21,2 -19,-6 -17,-23 -25,-28 -9,3 -12,33 -11,43 1,14 6,29 11,41 9,20 10,29 14,39l7 35c-1,1 29,0 40,8 11,8 11,14 11,17 0,2 -2,3 -8,-3 -5,-7 -5,-8 -16,-12 -11,-3 -27,-3 -27,-3l0 -8zm272 -164l46 -50 -98 1c-2,0 -4,-4 -4,-4l17 -1c-5,-25 -8,-20 -29,-21 -32,-1 -65,-24 -72,-18 -5,5 -3,18 1,24 20,32 55,26 60,29 -2,6 -10,2 -13,4 -1,6 1,12 1,18 2,10 3,16 6,16l85 2z"/>
    </g>
    <path class="fil0" d="M0 105l147 3 -22 29 136 -5 -18 -47 -64 4 23 -28c0,0 -1,0 -1,0l-201 44z"/>
    <path class="fil0" d="M366 12c-26,8 -12,31 -4,64 5,20 9,58 35,54 24,-4 9,-40 4,-65 -5,-21 -7,-61 -35,-53z"/>
    <path class="fil0" d="M305 52c1,9 7,27 9,36 3,12 6,23 9,36 10,39 44,30 42,4 -1,-10 -6,-26 -8,-37 -3,-12 -5,-25 -8,-37 -9,-39 -46,-24 -44,-2z"/>
    <path class="fil0" d="M277 138c9,29 46,24 39,-6 -2,-10 -6,-22 -9,-33 -3,-11 -4,-24 -8,-35 -10,-28 -47,-19 -41,9l19 65z"/>
   </g>
   <polygon class="fil1" points="23,627 23,532 81,532 81,552 45,552 45,569 76,569 76,588 45,588 45,607 82,607 82,627 "/>
   <polygon id="1" class="fil1" points="99,627 99,529 101,529 160,584 160,532 181,532 181,630 179,630 120,575 120,627 "/>
   <polygon id="2" class="fil1" points="202,627 202,532 260,532 260,552 224,552 224,569 255,569 255,588 224,588 224,607 261,607 261,627 "/>
   <path id="3" class="fil1" d="M304 549l-4 0 0 27 5 0c5,0 10,-2 13,-4 3,-2 4,-5 4,-10 0,-4 -1,-8 -4,-10 -3,-2 -8,-3 -14,-3zm-26 78l0 -95 24 0c8,0 14,1 19,2 4,1 8,2 11,5 3,2 6,6 8,9 2,4 3,8 3,12 0,6 -2,11 -5,16 -3,4 -7,8 -13,10l29 41 -26 0 -25 -37 -3 0 0 37 -22 0z"/>
   <path id="4" class="fil1" d="M443 574l0 46c-6,3 -12,6 -18,7 -6,2 -12,3 -18,3 -14,0 -26,-5 -35,-14 -10,-10 -15,-22 -15,-36 0,-15 5,-27 15,-37 9,-9 22,-14 36,-14 6,0 11,1 16,2 5,2 10,4 15,7l-3 24c-4,-5 -8,-8 -13,-10 -4,-2 -9,-3 -14,-3 -8,0 -15,3 -21,9 -5,5 -8,12 -8,21 0,9 3,16 8,22 6,5 12,8 21,8 2,0 4,0 6,0 2,-1 4,-1 6,-2l0 -13 -18 0 0 -20 40 0z"/>
   <polygon id="5" class="fil1" points="478,627 478,582 444,532 472,532 491,562 513,532 537,532 500,581 500,627 "/>
   <polygon id="6" class="fil1" points="543,627 543,532 601,532 601,551 565,551 565,570 597,570 597,589 565,589 565,627 "/>
   <polygon id="7" class="fil1" points="616,627 616,532 639,532 639,627 "/>
   <polygon id="8" class="fil1" points="680,627 680,552 650,552 650,532 733,532 733,552 703,552 703,627 "/>
  </g>
 </g>
</svg>
