<svg width="19" height="13" viewBox="0 0 19 13" fill="none" xmlns="http://www.w3.org/2000/svg">
<path d="M18.0002 11.1425L18.0227 10.9926C17.8052 11.7795 17.218 12.3867 16.4717 12.6077L16.456 12.6115C15.0527 13 9.40605 13 9.40605 13C9.40605 13 3.77362 13.0076 2.35613 12.6115C1.59564 12.3867 1.00765 11.7795 0.793903 11.0087L0.790153 10.9926C0.26591 8.2007 0.26216 4.84594 0.813403 1.8567L0.790153 2.00812C1.00765 1.22123 1.59489 0.614058 2.34113 0.393058L2.35688 0.389235C3.75862 0 9.4068 0 9.4068 0C9.4068 0 15.0385 0 16.4567 0.389235C17.218 0.614058 17.8059 1.22123 18.0197 1.99206L18.0234 2.00812C18.2619 3.30659 18.3984 4.80082 18.3984 6.32717C18.3984 6.383 18.3984 6.43958 18.3977 6.49617C18.3984 6.54817 18.3984 6.61011 18.3984 6.67205C18.3984 8.19917 18.2619 9.6934 18.0002 11.1425ZM7.60457 3.70806V9.28505L12.304 6.49235L7.60457 3.70806Z" fill="#ffffffff"/>
</svg>
