<svg width="12" height="13" viewBox="0 0 12 13" fill="none" xmlns="http://www.w3.org/2000/svg">
<path d="M10.7655 3.0455C10.1353 2.90666 9.56465 2.56414 9.13671 2.06787C8.70877 1.5716 8.44593 0.947517 8.38651 0.286612V0H6.21259V8.88564C6.21125 9.27901 6.09026 9.66207 5.86663 9.98098C5.64301 10.2999 5.32798 10.5386 4.96582 10.6636C4.60367 10.7886 4.21258 10.7936 3.84753 10.6779C3.48248 10.5622 3.16181 10.3315 2.93058 10.0184C2.69576 9.7001 2.5655 9.313 2.55869 8.91327C2.55188 8.51355 2.66887 8.12197 2.8927 7.79534C3.11653 7.46871 3.43556 7.224 3.80352 7.09669C4.17149 6.96939 4.56926 6.9661 4.93916 7.08732V4.81262C4.11431 4.69518 3.27444 4.84622 2.53703 5.2446C1.79963 5.64298 1.20157 6.26878 0.826506 7.03448C0.451444 7.80017 0.318139 8.66745 0.445238 9.51502C0.572337 10.3626 0.953482 11.148 1.53536 11.7615C2.09027 12.3463 2.80178 12.7475 3.57907 12.9139C4.35636 13.0803 5.16417 13.0044 5.89938 12.6958C6.63459 12.3873 7.26386 11.8601 7.70685 11.1816C8.14984 10.503 8.38646 9.70395 8.38651 8.88629V4.34598C9.26506 4.99287 10.3185 5.33973 11.3984 5.33775V3.11309C11.1858 3.11336 10.9736 3.09071 10.7655 3.0455Z" fill="#ffffffff"/>
</svg>
