<?xml version="1.0" encoding="UTF-8"?>
<!DOCTYPE svg PUBLIC "-//W3C//DTD SVG 1.0//EN" "http://www.w3.org/TR/2001/REC-SVG-20010904/DTD/svg10.dtd">
<!-- Creator: CorelDRAW X8 -->
<svg xmlns="http://www.w3.org/2000/svg" xml:space="preserve" width="159.544mm" height="137.147mm" version="1.0" style="shape-rendering:geometricPrecision; text-rendering:geometricPrecision; image-rendering:optimizeQuality; fill-rule:evenodd; clip-rule:evenodd"
viewBox="0 0 17278 14853"
 xmlns:xlink="http://www.w3.org/1999/xlink">
 <defs>
  <style type="text/css">
   <![CDATA[
    .fil0 {fill:white}
   ]]>
  </style>
 </defs>
 <g id="Слой_x0020_1">
  <metadata id="CorelCorpID_0Corel-Layer"/>
  <path class="fil0" d="M6789 6932l0 3513c613,0 3983,47 4243,0l-212 -4455c-71,0 -566,117 -684,117 -142,0 -189,-23 -142,-70 118,-118 802,-307 826,-307 1320,-707 1673,-1108 1508,-2569l-1202 -24c-24,0 -47,0 -71,24 -70,0 -377,165 -471,212 -330,142 -637,283 -990,377 -330,95 -755,212 -943,448 -118,118 -542,778 -424,825l0 0 0 0c23,0 47,24 70,24l0 0 0 0 24 0 0 23c23,0 47,0 71,24l0 0 23 0 24 0 0 0 23 23 0 0 0 0 24 0 23 24c0,0 24,0 48,24l0 0 23 0 24 0 0 0 23 23 0 0c24,24 48,24 71,24l0 23 0 0c24,0 47,0 71,24l0 0 23 23 0 0 24 0 0 24 47 0 0 0 0 0 24 24 0 0 23 23 0 0c24,0 24,24 24,24l0 0 47 23 0 0 24 0 0 24 23 0 0 0 24 24 0 0 23 23 0 0 24 24 23 0 0 23 24 0 24 24 0 0c0,0 0,23 0,23l23 0c0,0 0,24 24,24l0 0c0,0 0,0 0,24l0 0c23,0 23,23 23,23l0 0c24,0 24,0 24,24l0 0c0,0 23,0 23,23l0 0c0,0 24,24 24,24 47,71 -118,118 -236,0 -141,-142 -542,-377 -966,-519 -448,-141 -778,-188 -943,-165 -825,118 -141,-188 283,-165l0 0 23 0 0 0 0 0 24 0 0 0 0 0 24 0 0 0 0 0 0 0 23 0 0 0 0 0 0 0 24 0 0 0 23 0 0 0 0 0 24 24 0 0 0 0 23 0 0 0 0 0 0 0 24 0 0 0 24 0 0 0 0 0 23 0 0 0 0 0 24 0 0 0 23 0 0 23 24 0 0 0 0 0 24 0 0 0 23 0 0 0 24 0 0 0 23 24 0 0 24 0 0 0 0 0 23 0 24 0 0 0 24 24 0 0 23 0 24 0 23 0 0 23 24 0 23 0 0 0c-47,-236 189,-707 330,-848 165,-189 495,-307 778,-425 448,-188 1438,-471 1674,-754 23,-118 -24,-377 -47,-542 -47,-236 -142,-165 -307,-259 -542,-260 -1084,-849 -707,-1391 236,-330 495,141 778,94 141,-165 94,-330 0,-519 -236,-400 -778,-447 -1037,-94 -94,118 -94,283 -94,448 23,259 353,1697 447,1909 165,401 684,189 825,236 0,118 -23,142 -141,165 -424,142 -519,-94 -684,-118 -165,165 -70,330 -424,425 -401,94 -448,-142 -660,-165 -118,117 -71,212 -165,353 -401,495 -896,0 -990,24 -141,70 -118,212 -283,330 -118,70 -330,94 -495,47 -448,-142 -400,-542 -589,-660 -212,71 -283,778 -259,1013 23,330 141,684 259,967 212,471 236,683 330,919l165 825c-24,24 684,0 943,189 259,188 259,330 259,401 0,47 -47,70 -188,-71 -118,-165 -118,-189 -378,-283 -259,-71 -636,-71 -636,-71l0 -188 0 -1zm6411 -3865l1085 -1179 -2310 24c-48,0 -95,-95 -95,-95l401 -23c-118,-589 -189,-472 -684,-495 -754,-24 -1532,-566 -1697,-424 -118,117 -71,424 24,565 471,755 1296,613 1414,684 -47,141 -236,47 -306,94 -24,142 23,283 23,424 47,236 71,378 142,378l2003 47 0 0zm-13200 -590l3465 71 -518 684 3205 -118 -424 -1108 -1509 94 543 -660c0,0 -24,0 -24,0l-4738 1037 0 0zm8627 -2192c-613,189 -283,731 -94,1509 118,471 212,1367 825,1273 566,-95 212,-943 94,-1532 -118,-495 -165,-1438 -825,-1250l0 0zm-1438 943c24,212 165,637 213,849 70,283 141,542 212,848 235,920 1037,707 990,95 -24,-236 -142,-613 -189,-873 -71,-282 -118,-589 -188,-872 -213,-919 -1085,-565 -1038,-47l0 0zm-660 2027c213,684 1085,566 920,-141 -47,-236 -142,-519 -212,-778 -71,-259 -95,-566 -189,-825 -236,-660 -1108,-448 -966,212l447 1532 0 0zm-5987 11527l0 -2239 1367 0 0 471 -848 0 0 401 730 0 0 448 -730 0 0 447 872 0 0 472 -1391 0zm1792 0l0 -2310 47 0 1391 1296 0 -1225 495 0 0 2310 -48 0 -1390 -1297 0 1226 -495 0zm2428 0l0 -2239 1367 0 0 471 -849 0 0 401 731 0 0 448 -731 0 0 447 872 0 0 472 -1390 0zm2404 -1839l-94 0 0 637 117 0c118,0 236,-47 307,-95 71,-47 94,-117 94,-235 0,-95 -23,-189 -94,-236 -71,-47 -189,-71 -330,-71l0 0zm-613 1839l0 -2239 566 0c188,0 330,23 448,47 94,23 188,47 259,118 71,47 141,141 188,212 48,94 71,188 71,283 0,141 -47,259 -118,377 -70,94 -165,188 -306,235l683 967 -612 0 -590 -872 -70 0 0 872 -519 0 0 0zm3889 -1249l0 1084c-141,71 -283,141 -424,165 -141,47 -283,71 -424,71 -330,0 -613,-118 -825,-330 -236,-236 -354,-519 -354,-849 0,-354 118,-636 354,-872 212,-212 518,-330 848,-330 142,0 260,23 377,47 118,47 236,94 354,165l-71 566c-94,-118 -188,-189 -306,-236 -94,-47 -212,-71 -330,-71 -189,0 -354,71 -495,212 -118,118 -189,283 -189,495 0,213 71,378 189,519 141,118 283,189 495,189 47,0 94,0 141,0 47,-24 95,-24 142,-48l0 -306 -425 0 0 -471 943 0 0 0zm825 1249l0 -1061 -801 -1178 660 0 448 707 518 -707 566 0 -872 1155 0 1084 -519 0zm1533 0l0 -2239 1367 0 0 447 -849 0 0 448 754 0 0 448 -754 0 0 896 -518 0zm1720 0l0 -2239 542 0 0 2239 -542 0zm1509 0l0 -1768 -707 0 0 -471 1956 0 0 471 -707 0 0 1768 -542 0z"/>
 </g>
</svg>
