<svg width="14" height="14" viewBox="0 0 14 14" fill="none" xmlns="http://www.w3.org/2000/svg">
<mask id="mask0_933_191" style="mask-type:luminance" maskUnits="userSpaceOnUse" x="0" y="0" width="14" height="14">
<path d="M13.3983 0.35054H0V13.7488H13.3983V0.35054Z" fill="white"/>
</mask>
<g mask="url(#mask0_933_191)">
<path d="M10.4288 1.1879H2.97045C1.79267 1.1879 0.837891 2.14268 0.837891 3.32047V10.7789C0.837891 11.9566 1.79267 12.9114 2.97045 12.9114H10.4288C11.6066 12.9114 12.5614 11.9566 12.5614 10.7789V3.32047C12.5614 2.14268 11.6066 1.1879 10.4288 1.1879Z" stroke="#ffffffff" stroke-width="1.44" stroke-miterlimit="10"/>
<path d="M6.70006 9.71502C8.17075 9.71502 9.36297 8.5228 9.36297 7.05211C9.36297 5.58142 8.17075 4.38918 6.70006 4.38918C5.22937 4.38918 4.03711 5.58142 4.03711 7.05211C4.03711 8.5228 5.22937 9.71502 6.70006 9.71502Z" stroke="#ffffffff" stroke-width="1.44" stroke-miterlimit="10"/>
<path d="M10.1606 4.38666C10.6016 4.38666 10.9589 4.02925 10.9589 3.58835C10.9589 3.14745 10.6016 2.79003 10.1606 2.79003C9.71974 2.79003 9.3623 3.14745 9.3623 3.58835C9.3623 4.02925 9.71974 4.38666 10.1606 4.38666Z" fill="#ffffffff"/>
</g>
</svg>
